<svg width="561" height="561" viewBox="0 0 561 561" fill="none" xmlns="http://www.w3.org/2000/svg">
<g clip-path="url(#clip0)">
<path d="M561 434.495C552.835 437.583 543.823 437.576 535.662 434.476C527.502 431.375 520.759 425.396 516.705 417.665L436.061 306.143L424.373 290.552L330.803 417.805C326.993 425.212 320.615 430.977 312.863 434.023C305.111 437.068 296.515 437.186 288.682 434.355L409.25 272.6L297.097 126.483C305.161 123.576 313.98 123.538 322.069 126.374C330.159 129.209 337.024 134.745 341.509 142.05L425.098 254.952L509.154 142.518C512.994 135.243 519.374 129.633 527.079 126.754C534.785 123.876 543.28 123.929 550.949 126.903L507.425 184.663L448.473 261.403C446.836 262.863 445.526 264.653 444.629 266.655C443.732 268.658 443.268 270.827 443.268 273.021C443.268 275.214 443.732 277.383 444.629 279.385C445.526 281.388 446.836 283.178 448.473 284.638L560.766 434.518L561 434.495ZM0.0470304 270.59L9.86453 222.086C36.8393 126.179 146.795 86.2776 222.437 145.65C266.732 180.455 277.789 229.73 275.615 285.269H26.0868C22.0429 384.449 93.6171 444.336 185.13 413.738C199.965 408.398 213.244 399.461 223.777 387.729C234.311 375.996 241.769 361.834 245.485 346.512C250.323 330.944 258.294 328.279 272.927 332.767C270.488 351.756 263.776 369.946 253.293 385.967C242.811 401.987 228.833 415.423 212.409 425.262C185.28 440.101 154.154 445.982 123.482 442.065C92.8089 438.148 64.1599 424.634 41.6312 403.453C19.3555 378.381 5.89256 346.71 3.29616 313.272C3.29616 307.779 1.42616 302.637 0.163905 297.705C0.0501166 288.674 -0.00442622 279.644 0.000280413 270.613L0.0470304 270.59ZM26.3907 263.904H252.053C250.65 192.003 205.28 140.998 144.762 140.531C77.3949 139.596 29.1957 189.478 26.227 263.577L26.3907 263.904Z" fill="white"/>
</g>
<defs>
<clipPath id="clip0">
<rect width="561" height="561" fill="white"/>
</clipPath>
</defs>
</svg>
