<svg width="1193" height="665" viewBox="0 0 1193 665" fill="none" xmlns="http://www.w3.org/2000/svg">
<g clip-path="url(#clip0)">
<path d="M324.75 66.5H365.5C386 66.5 401 70.75 410.5 79.25C420.167 87.5833 425 101.25 425 120.25C425 146.25 416.667 162 400 167.5L428.75 269H401.5L375 174H353V269H324.75V66.5ZM363.75 153.75C375.917 153.75 384.583 151.333 389.75 146.5C395.083 141.667 397.75 132.917 397.75 120.25C397.75 111.917 396.833 105.417 395 100.75C393.167 95.9167 389.917 92.4167 385.25 90.25C380.583 87.9167 374 86.75 365.5 86.75H353V153.75H363.75ZM454.389 66.5H532.889V87.5H482.639V154.5H523.389V174.5H482.639V248.75H533.389V269H454.389V66.5ZM604.445 271.5C586.112 271.5 572.862 265.75 564.695 254.25C556.529 242.583 552.445 225.333 552.445 202.5V134.75C552.445 119.083 554.029 106.25 557.195 96.25C560.529 86.0833 566.112 78.3333 573.945 73C581.945 67.5 592.862 64.75 606.695 64.75C625.362 64.75 638.779 69.5 646.945 79C655.279 88.5 659.445 103.417 659.445 123.75V131.25H632.945V125C632.945 115.333 632.362 107.917 631.195 102.75C630.029 97.4167 627.529 93.4167 623.695 90.75C620.029 88.0833 614.529 86.75 607.195 86.75C599.362 86.75 593.529 88.5833 589.695 92.25C585.862 95.75 583.362 100.5 582.195 106.5C581.195 112.5 580.695 120.5 580.695 130.5V205.5C580.695 221 582.529 232.167 586.195 239C590.029 245.667 597.279 249 607.945 249C618.445 249 625.612 245.333 629.445 238C633.445 230.667 635.445 218.917 635.445 202.75V188.75H609.695V168.75H660.945V269H643.195L640.445 245.75C634.112 262.917 622.112 271.5 604.445 271.5ZM741.734 271.25C721.901 271.25 707.651 265.667 698.984 254.5C690.484 243.167 686.234 226.833 686.234 205.5V128.75C686.234 107.75 690.568 91.8333 699.234 81C707.901 70.1667 722.068 64.75 741.734 64.75C761.401 64.75 775.484 70.25 783.984 81.25C792.651 92.0833 796.984 107.917 796.984 128.75V205.75C796.984 226.75 792.651 242.917 783.984 254.25C775.318 265.583 761.234 271.25 741.734 271.25ZM741.734 249C752.234 249 759.318 245.917 762.984 239.75C766.651 233.583 768.484 224.25 768.484 211.75V123C768.484 110.667 766.651 101.583 762.984 95.75C759.318 89.75 752.234 86.75 741.734 86.75C731.068 86.75 723.901 89.75 720.234 95.75C716.568 101.583 714.734 110.667 714.734 123V211.75C714.734 224.25 716.568 233.583 720.234 239.75C723.901 245.917 731.068 249 741.734 249ZM824.75 66.5H865.5C886 66.5 901 70.75 910.5 79.25C920.167 87.5833 925 101.25 925 120.25C925 146.25 916.667 162 900 167.5L928.75 269H901.5L875 174H853V269H824.75V66.5ZM863.75 153.75C875.917 153.75 884.583 151.333 889.75 146.5C895.083 141.667 897.75 132.917 897.75 120.25C897.75 111.917 896.833 105.417 895 100.75C893.167 95.9167 889.917 92.4167 885.25 90.25C880.583 87.9167 874 86.75 865.5 86.75H853V153.75H863.75ZM985.389 197.5L941.639 66.5H967.889L998.889 164.25L1029.39 66.5H1055.89L1012.39 197.5V269H985.389V197.5Z" fill="white"/>
<circle cx="173" cy="164" r="150" fill="#E70303"/>
<path d="M167.496 272C147.496 272 133.246 265.917 124.746 253.75C116.246 241.583 111.996 224.333 111.996 202V134C111.996 111.167 116.579 93.75 125.746 81.75C135.079 69.75 150.746 63.75 172.746 63.75C193.913 63.75 209.079 68.9167 218.246 79.25C227.413 89.5833 231.996 104.167 231.996 123V136H188.246V119.5C188.246 111.5 187.329 105.5 185.496 101.5C183.663 97.3333 179.579 95.25 173.246 95.25C166.746 95.25 162.496 97.5 160.496 102C158.663 106.5 157.746 112.75 157.746 120.75V214.5C157.746 222.5 158.913 228.833 161.246 233.5C163.746 238 168.163 240.25 174.496 240.25C186.163 240.25 191.996 231.5 191.996 214V190.25H173.746V164H232.246V269H202.746L200.246 252.25C193.913 265.417 182.996 272 167.496 272Z" fill="black"/>
</g>
<g clip-path="url(#clip1)">
<path d="M536.25 369.5H564V572H536.25V369.5ZM647.512 574.25C627.512 574.25 613.428 568.333 605.262 556.5C597.095 544.5 593.012 528 593.012 507V435.5C593.012 413.333 597.012 396.5 605.012 385C613.012 373.5 627.178 367.75 647.512 367.75C665.678 367.75 678.678 372.667 686.512 382.5C694.512 392.333 698.512 406.833 698.512 426V442H671.762V427.75C671.762 418.417 671.345 411.25 670.512 406.25C669.678 401.25 667.512 397.25 664.012 394.25C660.678 391.25 655.262 389.75 647.762 389.75C640.095 389.75 634.345 391.417 630.512 394.75C626.845 397.917 624.428 402.417 623.262 408.25C622.095 413.917 621.512 421.583 621.512 431.25V511.5C621.512 521.833 622.345 529.917 624.012 535.75C625.678 541.583 628.345 545.75 632.012 548.25C635.845 550.75 641.095 552 647.762 552C654.928 552 660.262 550.417 663.762 547.25C667.262 544.083 669.428 539.75 670.262 534.25C671.262 528.75 671.762 521.25 671.762 511.75V496.75H698.512V511.75C698.512 531.917 694.678 547.417 687.012 558.25C679.512 568.917 666.345 574.25 647.512 574.25ZM725.424 369.5H803.924V390.5H753.674V457.5H794.424V477.5H753.674V551.75H804.424V572H725.424V369.5ZM827.23 369.5H846.48L903.98 504V369.5H927.48V572H909.48L851.23 433.75V572H827.23V369.5ZM981.561 390.5H947.311V369.5H1043.06V390.5H1009.81V572H981.561V390.5Z" fill="white"/>
<circle cx="384" cy="466" r="150" fill="#E70303"/>
<path d="M323.5 369.5H361.75L383.5 507L403.75 369.5H444.25L407.25 572H360L323.5 369.5Z" fill="black"/>
</g>
<defs>
<clipPath id="clip0">
<rect width="1063" height="314" fill="white"/>
</clipPath>
<clipPath id="clip1">
<rect width="841" height="302" fill="white" transform="translate(222 314)"/>
</clipPath>
</defs>
</svg>
