<svg width="32" height="32" viewBox="0 0 32 32" fill="none" xmlns="http://www.w3.org/2000/svg">
<path d="M9.6 11.2H22.4C23.2836 11.2 24 10.4836 24 9.6C24 8.71637 23.2836 8 22.4 8H9.6C8.71637 8 8 8.71637 8 9.6C8 10.4836 8.71637 11.2 9.6 11.2Z" fill="white"/>
<path d="M22.4 14.4H9.6C8.71637 14.4 8 15.1164 8 16C8 16.8837 8.71637 17.6 9.6 17.6H22.4C23.2836 17.6 24 16.8837 24 16C24 15.1164 23.2836 14.4 22.4 14.4Z" fill="white"/>
<path d="M22.4 20.8H9.6C8.71637 20.8 8 21.5164 8 22.4C8 23.2836 8.71637 24 9.6 24H22.4C23.2836 24 24 23.2836 24 22.4C24 21.5164 23.2836 20.8 22.4 20.8Z" fill="white"/>
</svg>
