<svg width="65" height="65" viewBox="0 0 65 65" fill="none" xmlns="http://www.w3.org/2000/svg">
<g opacity="0.65">
<path d="M44.4302 14.8985C44.1188 14.8985 43.9075 14.9364 43.6881 14.9879V15.0231H43.726C43.8723 15.3047 44.1215 15.5106 44.3056 15.7625C44.4519 16.0522 44.5765 16.342 44.7227 16.6291L44.7606 16.5885C45.0152 16.4097 45.1398 16.1227 45.1398 15.6866C45.0315 15.5593 45.0152 15.432 44.9231 15.3075C44.8148 15.126 44.5819 15.0366 44.4356 14.8931L44.4302 14.8985ZM15.6271 50.6322H13.1165C13.0459 46.6423 12.8019 42.6573 12.3852 38.6885H12.3635L8.54479 50.6322H6.63542L2.84375 38.6885H2.81667C2.52009 42.6635 2.34396 46.6466 2.28854 50.6322H0C0.148958 45.3077 0.52 40.3135 1.11042 35.6552H4.225L7.84062 46.6618H7.86229L11.5104 35.6552H14.476C15.1315 41.1125 15.516 46.1093 15.6352 50.6322H15.6271ZM26.5065 39.5822C25.4827 45.1208 24.134 49.1508 22.4656 51.6614C21.1602 53.6006 19.7302 54.5675 18.1783 54.5675C17.764 54.5675 17.2575 54.4429 16.6454 54.1937V52.8558C16.9433 52.9018 17.2954 52.9262 17.6908 52.9262C18.4167 52.9262 18.999 52.7231 19.4431 52.325C19.9767 51.8375 20.2421 51.2904 20.2421 50.6864C20.2421 50.2666 20.0335 49.4135 19.6192 48.1297L16.8729 39.5822H19.3375L21.3065 45.9739C21.7506 47.4256 21.9375 48.4385 21.8617 49.0154C22.945 46.1337 23.6979 42.9839 24.1231 39.5822H26.5065ZM59.8867 50.6322H52.7637V35.6552H55.1606V48.7906H59.8867V50.6322ZM50.895 50.9979L48.1433 49.6437C48.3871 49.4379 48.6227 49.2158 48.834 48.9666C50.0067 47.5962 50.589 45.5595 50.589 42.8647C50.589 37.9085 48.6444 35.4277 44.7525 35.4277C42.8458 35.4277 41.3562 36.056 40.2837 37.3154C39.1192 38.6912 38.5342 40.717 38.5342 43.3956C38.5342 46.0281 39.0487 47.9618 40.0887 49.1914C41.0367 50.3018 42.464 50.857 44.376 50.857C45.091 50.857 45.7465 50.7677 46.3396 50.5916L49.9281 52.6825L50.9031 50.9979H50.895ZM41.9792 47.6341C41.3698 46.6591 41.0665 45.0883 41.0665 42.9325C41.0665 39.1597 42.2148 37.272 44.506 37.272C45.7058 37.272 46.5915 37.7243 47.1521 38.6262C47.7587 39.6066 48.0621 41.1612 48.0621 43.2927C48.0621 47.0952 46.9137 49.0018 44.6225 49.0018C43.4173 49.0018 42.5371 48.5495 41.9738 47.6477L41.9792 47.6341ZM37.4888 46.4831C37.4888 47.756 37.0229 48.8014 36.0913 49.6139C35.1596 50.4264 33.9165 50.8327 32.3429 50.8327C30.8723 50.8327 29.4613 50.3668 28.0827 49.4379L28.7246 48.1487C29.9108 48.7445 30.9806 49.037 31.9475 49.037C32.8467 49.037 33.5535 48.8393 34.0681 48.4412C34.3253 48.2473 34.533 47.9953 34.6742 47.7059C34.8154 47.4164 34.8861 47.0976 34.8806 46.7756C34.8806 45.8818 34.2577 45.1235 33.1256 44.487C32.0748 43.9102 29.9758 42.7077 29.9758 42.7077C28.8329 41.8762 28.2642 40.9852 28.2642 39.52C28.2642 38.3012 28.6894 37.3262 29.5371 36.5814C30.3902 35.8285 31.4871 35.4575 32.8413 35.4575C34.2279 35.4575 35.4954 35.8258 36.6329 36.5679L36.056 37.857C35.1471 37.4578 34.167 37.2459 33.1744 37.2341C32.4079 37.2341 31.8148 37.4183 31.4031 37.792C31.1942 37.9651 31.0258 38.1819 30.9098 38.4271C30.7937 38.6723 30.7328 38.9399 30.7315 39.2112C30.7315 40.0995 31.3652 40.8633 32.5352 41.5133C33.5996 42.0956 35.75 43.3279 35.75 43.3279C36.9227 44.1539 37.505 45.0341 37.505 46.4912L37.4888 46.4831ZM62.8983 30.6339C61.4494 30.596 60.3254 30.7422 59.3856 31.1431C59.1148 31.2514 58.6815 31.2514 58.6435 31.5954C58.7925 31.7389 58.8142 31.9745 58.9415 32.175C59.1581 32.5379 59.5319 33.0227 59.8785 33.2772C60.2577 33.5752 60.6369 33.8622 61.035 34.1168C61.7392 34.5502 62.5381 34.8075 63.2287 35.2435C63.6215 35.4981 64.0223 35.8204 64.4204 36.0912C64.6181 36.2266 64.7454 36.4704 65 36.557V36.5029C64.8754 36.3404 64.8375 36.1047 64.7156 35.9233C64.5342 35.7418 64.3527 35.5793 64.174 35.4006C63.6422 34.6998 63.0076 34.0835 62.2917 33.5725C61.7121 33.177 60.4446 32.6245 60.2062 31.961L60.171 31.9231C60.5665 31.8879 61.0377 31.7443 61.4169 31.636C62.0317 31.4735 62.595 31.5087 63.2315 31.3489C63.5185 31.2758 63.8083 31.1864 64.0981 31.0943V30.9318C63.7731 30.6068 63.5294 30.1654 63.1935 29.862C62.2562 29.0427 61.2565 28.2974 60.2035 27.6331C59.6348 27.2702 58.9144 27.0372 58.3158 26.7285C58.0992 26.6202 57.7362 26.566 57.6117 26.3845C57.2867 25.9891 57.0971 25.4637 56.8669 24.9925C56.3351 23.9608 55.8409 22.9102 55.3854 21.8427C55.0604 21.1331 54.8627 20.4262 54.4646 19.7762C52.5958 16.6968 50.5727 14.8308 47.4608 13.0054C46.7919 12.6262 45.9902 12.4637 45.1425 12.2633C44.6902 12.2416 44.2379 12.2091 43.7883 12.1902C43.4904 12.0629 43.2033 11.7189 42.9487 11.5537C41.9196 10.9037 39.2546 9.49537 38.4962 11.3587C38.0087 12.5341 39.2194 13.6933 39.6392 14.2891C39.9506 14.7035 40.3433 15.1775 40.56 15.6433C40.6873 15.9575 40.7225 16.2797 40.8498 16.6075C41.1369 17.4037 41.4104 18.292 41.7896 19.0368C41.9873 19.416 42.204 19.8141 42.4585 20.1554C42.6048 20.3531 42.854 20.4452 42.9108 20.7702C42.6562 21.1385 42.64 21.6747 42.4937 22.1243C41.8437 24.1745 42.0983 26.7095 43.0192 28.2181C43.309 28.6677 43.9996 29.6643 44.9231 29.2825C45.7356 28.9575 45.5569 27.9283 45.7898 27.021C45.844 26.8043 45.8088 26.6608 45.9198 26.5145V26.5552C46.1744 27.0643 46.429 27.5491 46.6619 28.0583C47.2198 28.9466 48.1948 29.8675 49.01 30.4822C49.4433 30.8072 49.7873 31.3706 50.329 31.571V31.5168H50.2883C50.1719 31.3597 50.0175 31.2839 49.8712 31.1566C49.5278 30.8205 49.2109 30.4583 48.9233 30.0733C48.1603 29.0306 47.4836 27.9274 46.9002 26.7745C46.6023 26.2058 46.3531 25.5937 46.1148 25.0331C46.0065 24.8164 46.0065 24.4914 45.825 24.3831C45.5542 24.7785 45.156 25.1225 44.9583 25.61C44.6144 26.39 44.5792 27.3487 44.4492 28.3454C44.376 28.3643 44.4113 28.3454 44.376 28.3833C43.7965 28.2425 43.5987 27.6412 43.3821 27.1375C42.8404 25.851 42.751 23.7845 43.2196 22.3031C43.3469 21.9239 43.8885 20.7268 43.6719 20.3639C43.5581 20.02 43.2006 19.8222 43.0029 19.5433C42.7486 19.1802 42.5309 18.7928 42.3529 18.3868C41.9196 17.3739 41.7029 16.2527 41.2317 15.2397C41.015 14.7712 40.6358 14.281 40.3271 13.8504C39.9831 13.3629 39.604 13.0189 39.3304 12.442C39.241 12.2443 39.1137 11.9166 39.2573 11.7C39.2952 11.5537 39.371 11.4968 39.5119 11.4562C39.7502 11.2612 40.4192 11.5158 40.6548 11.6241C41.3237 11.895 41.8871 12.1495 42.4477 12.5287C42.7023 12.7075 42.9758 13.0514 43.3008 13.1408H43.68C44.2596 13.2681 44.9123 13.1787 45.454 13.3385C46.4154 13.6472 47.2821 14.0968 48.0594 14.5843C50.4545 16.1143 52.4025 18.2502 53.7062 20.7756C53.9229 21.1927 54.0177 21.5745 54.2154 22.0079C54.5946 22.9016 55.0631 23.8035 55.4477 24.6675C55.8269 25.5206 56.1925 26.39 56.7369 27.0968C57.0077 27.476 58.0965 27.6737 58.584 27.8714C58.9442 28.0339 59.5048 28.1829 59.8298 28.3806C60.4527 28.7597 61.0594 29.1931 61.6444 29.6102C61.9423 29.816 62.8442 30.2683 62.8983 30.6339Z" fill="white"/>
</g>
</svg>
