<svg width="455" height="455" viewBox="0 0 455 455" fill="none" xmlns="http://www.w3.org/2000/svg">
<g clip-path="url(#clip0)">
<path d="M227.462 455C221.376 455 215.309 453.408 209.982 450.317L154.32 417.387C146.017 412.742 150.074 411.093 152.804 410.126C163.894 406.277 166.131 405.386 177.98 398.675C179.213 397.973 180.843 398.239 182.113 398.997L224.883 424.382C226.438 425.236 228.618 425.236 230.04 424.382L396.778 328.15C398.333 327.259 399.319 325.477 399.319 323.638V131.211C399.319 129.334 398.314 127.571 396.722 126.623L230.059 30.4661C228.523 29.5751 226.476 29.5751 224.921 30.4661L58.2963 126.642C56.6849 127.571 55.6611 129.391 55.6611 131.211V323.638C55.6611 325.477 56.6849 327.221 58.2963 328.093L103.967 354.483C128.746 366.882 143.931 352.284 143.931 337.61V147.629C143.931 144.937 146.092 142.832 148.784 142.832H169.923C172.558 142.832 174.757 144.956 174.757 147.629V337.61C174.757 370.692 156.747 389.651 125.39 389.651C115.759 389.651 108.157 389.651 86.9803 379.205L43.2245 354.047C32.4182 347.81 25.7449 336.131 25.7449 323.638V131.211C25.7449 118.717 32.4372 107.039 43.2245 100.821L209.963 4.47427C220.523 -1.49761 234.533 -1.49761 244.998 4.47427L411.718 100.821C422.524 107.058 429.235 118.717 429.235 131.211V323.638C429.235 336.131 422.524 347.772 411.718 354.047L244.998 450.317C239.69 453.408 233.642 455 227.462 455ZM362.085 265.284C362.085 229.263 337.742 219.67 286.498 212.902C234.723 206.058 229.452 202.513 229.452 190.399C229.452 180.389 233.907 167.023 272.26 167.023C306.518 167.023 319.144 174.398 324.339 197.489C324.794 199.669 326.784 201.262 329.021 201.262H350.653C351.999 201.262 353.269 200.674 354.179 199.726C355.089 198.702 355.582 197.394 355.449 196.01C352.094 156.236 325.666 137.694 272.26 137.694C224.713 137.694 196.351 157.752 196.351 191.403C196.351 227.898 224.561 237.984 270.194 242.496C324.794 247.842 329.021 255.824 329.021 266.554C329.021 285.19 314.063 293.134 278.933 293.134C234.817 293.134 225.111 282.062 221.85 260.108C221.471 257.758 219.461 256.032 217.053 256.032H195.498C192.825 256.032 190.682 258.156 190.682 260.829C190.682 288.925 205.963 322.406 278.933 322.406C331.789 322.424 362.085 301.627 362.085 265.284Z" fill="white"/>
</g>
<defs>
<clipPath id="clip0">
<rect width="455" height="455" fill="white"/>
</clipPath>
</defs>
</svg>
