<svg width="65" height="65" viewBox="0 0 65 65" fill="none" xmlns="http://www.w3.org/2000/svg">
<path d="M18.9854 27.644H16.4287L15.034 34.8157H17.3035C18.8094 34.8157 19.9306 34.5313 20.6673 33.9652C21.404 33.3965 21.8996 32.4513 22.1569 31.1242C22.406 29.8513 22.2923 28.9521 21.821 28.4294C21.3471 27.9067 20.4046 27.644 18.9854 27.644ZM32.5 15.405C14.5519 15.405 0 23.0588 0 32.5C0 41.9413 14.5519 49.5977 32.5 49.5977C50.4481 49.5977 65 41.9413 65 32.5C65 23.0588 50.4481 15.405 32.5 15.405ZM23.6708 35.5848C22.964 36.2619 22.1135 36.7711 21.1873 37.0771C20.2773 37.3696 19.1154 37.5213 17.7071 37.5213H14.5085L13.6229 42.074H9.89083L13.2221 24.9411H20.3992C22.5577 24.9411 24.1312 25.5071 25.1225 26.6419C26.1137 27.774 26.4117 29.3557 26.0162 31.3869C25.8648 32.1907 25.5859 32.9651 25.1902 33.6809C24.8029 34.3715 24.2965 35.0079 23.6708 35.5848ZM34.5692 37.5213L36.0398 29.9407C36.2104 29.0794 36.1454 28.489 35.8556 28.1775C35.5658 27.8634 34.9456 27.7063 33.995 27.7063H31.0375L29.1308 37.524H25.4258L28.7571 20.3884H32.4594L31.5737 24.9438H34.8725C36.9498 24.9438 38.3798 25.3067 39.1679 26.0298C39.956 26.7529 40.1917 27.9257 39.8802 29.5479L38.331 37.5213H34.5692ZM55.1444 31.3869C54.9954 32.1913 54.7164 32.9661 54.3183 33.6809C53.931 34.3715 53.4246 35.0079 52.799 35.5848C52.0917 36.2598 51.2435 36.7695 50.3154 37.0771C49.4054 37.3696 48.2435 37.5213 46.8325 37.5213H43.6367L42.751 42.0767H39.019L42.3502 24.9438H49.5246C51.6831 24.9438 53.2567 25.5098 54.2479 26.6446C55.2392 27.774 55.5398 29.3557 55.1444 31.3869ZM48.1162 27.644H45.5623L44.1648 34.8157H46.4344C47.9429 34.8157 49.0642 34.5313 49.7981 33.9652C50.5348 33.3965 51.0304 32.4513 51.2904 31.1242C51.5396 29.8513 51.4231 28.9521 50.9519 28.4294C50.4806 27.9067 49.5327 27.644 48.1162 27.644Z" fill="white"/>
</svg>
